<svg width="40" height="40" viewBox="0 0 40 40" fill="none" xmlns="http://www.w3.org/2000/svg">
<g clip-path="url(#clip0_33_349)">
<path fill-rule="evenodd" clip-rule="evenodd" d="M20 2.5C10.335 2.5 2.5 10.3375 2.5 20C2.5 29.6625 10.335 37.5 20 37.5C29.665 37.5 37.5 29.6625 37.5 20C37.5 10.3375 29.665 2.5 20 2.5ZM20 40C8.95375 40 0 31.05 0 20C0 8.95 8.95375 0 20 0C31.0462 0 40 8.95 40 20C40 31.05 31.0462 40 20 40ZM27.1462 27.15C26.6537 27.6375 25.8575 27.6375 25.365 27.15L19.9925 21.7751L14.6975 27.075C14.2087 27.5625 13.4162 27.5625 12.93 27.075C12.4412 26.5875 12.4412 25.7875 12.93 25.3L18.225 20.0125L12.8925 14.675C12.4013 14.1875 12.4013 13.3876 12.8925 12.8876C13.385 12.4001 14.1825 12.4001 14.675 12.8876L20.0075 18.2249L25.3025 12.925C25.7913 12.4375 26.5837 12.4375 27.0712 12.925C27.56 13.4125 27.56 14.2125 27.0712 14.7L21.775 19.9875L27.1462 25.3625C27.6375 25.8625 27.6375 26.65 27.1462 27.15Z" fill="#D4D6D3"/>
</g>
<defs>
<clipPath id="clip0_33_349">
<rect width="40" height="40" fill="white" transform="matrix(1 0 0 -1 0 40)"/>
</clipPath>
</defs>
</svg>
