<svg width="40" height="40" viewBox="0 0 40 40" fill="none" xmlns="http://www.w3.org/2000/svg">
<g clip-path="url(#clip0_18_129)">
<mask id="mask0_18_129" style="mask-type:luminance" maskUnits="userSpaceOnUse" x="0" y="0" width="40" height="40">
<path fill-rule="evenodd" clip-rule="evenodd" d="M0 0H40V40H0V0ZM10.4762 30.9524L3.80952 29.5238V31.4286V31.9048V32.381H4.28571L4.7619 32.8571H5.71429H11.9048C12.2857 32.8571 17.1429 33.1746 19.5238 33.3333C23.1746 33.1746 30.6667 32.8571 31.4286 32.8571C32.1905 32.8571 33.3333 32.2222 33.8095 31.9048L30.4762 30.4762L20.4762 30.9524H10.4762Z" fill="white"/>
</mask>
<g mask="url(#mask0_18_129)">
<path d="M34.3225 11.1588H5.67749C4.51717 11.1588 3.4044 11.6197 2.58392 12.4402C1.76345 13.2606 1.30249 14.3734 1.30249 15.5338V31.9087C1.30249 33.0691 1.76345 34.1819 2.58392 35.0023C3.4044 35.8228 4.51717 36.2837 5.67749 36.2837H34.3225C35.4828 36.2837 36.5956 35.8228 37.4161 35.0023C38.2365 34.1819 38.6975 33.0691 38.6975 31.9087V15.5338C38.6975 14.3734 38.2365 13.2606 37.4161 12.4402C36.5956 11.6197 35.4828 11.1588 34.3225 11.1588ZM5.67749 13.6588H34.3225C34.8198 13.6588 35.2967 13.8563 35.6483 14.2079C35.9999 14.5596 36.1975 15.0365 36.1975 15.5338V18.3237L25.5437 20.6075C25.5121 20.305 25.37 20.0248 25.1447 19.8205C24.9194 19.6161 24.6267 19.502 24.3225 19.5H15.6775C15.3733 19.502 15.0806 19.6161 14.8553 19.8205C14.63 20.0248 14.4879 20.305 14.4563 20.6075L3.80249 18.3237V15.5338C3.80249 15.0365 4.00006 14.5596 4.35169 14.2079C4.70332 13.8563 5.18021 13.6588 5.67749 13.6588ZM23.0725 22V24.1487H16.9275V22H23.0725ZM34.3225 33.7863H5.67749C5.21839 33.784 4.7761 33.6133 4.43443 33.3067C4.09276 33 3.87546 32.5787 3.82374 32.1225C4.28617 32.401 4.81519 32.5495 5.355 32.5525H31.7612C31.927 32.5525 32.086 32.4867 32.2032 32.3694C32.3204 32.2522 32.3862 32.0933 32.3862 31.9275C32.3862 31.7617 32.3204 31.6028 32.2032 31.4856C32.086 31.3683 31.927 31.3025 31.7612 31.3025H5.355C5.03789 31.3013 4.72683 31.2155 4.45393 31.054C4.18102 30.8925 3.95615 30.6611 3.80249 30.3838V20.8837L14.4275 23.1612V25.4012C14.4275 25.7328 14.5592 26.0507 14.7936 26.2851C15.028 26.5196 15.346 26.6512 15.6775 26.6512H24.3225C24.654 26.6512 24.972 26.5196 25.2064 26.2851C25.4408 26.0507 25.5725 25.7328 25.5725 25.4012V23.1612L36.1975 20.8837V31.9138C36.1968 32.4106 35.999 32.8869 35.6474 33.238C35.2959 33.589 34.8194 33.7863 34.3225 33.7863Z" fill="#262023"/>
<path d="M12.4475 9.79124C12.779 9.79124 13.097 9.65955 13.3314 9.42513C13.5658 9.19071 13.6975 8.87276 13.6975 8.54124V6.54124C13.6982 6.12219 13.865 5.7205 14.1615 5.4243C14.4579 5.1281 14.8597 4.96157 15.2787 4.96124H24.7213C25.1403 4.96157 25.5421 5.1281 25.8385 5.4243C26.135 5.7205 26.3018 6.12219 26.3025 6.54124V8.54124C26.3025 8.87276 26.4342 9.19071 26.6686 9.42513C26.903 9.65955 27.221 9.79124 27.5525 9.79124C27.884 9.79124 28.202 9.65955 28.4364 9.42513C28.6708 9.19071 28.8025 8.87276 28.8025 8.54124V6.54124C28.8012 5.45935 28.3707 4.42216 27.6056 3.65726C26.8405 2.89237 25.8032 2.46224 24.7213 2.46124H15.2787C14.1968 2.46224 13.1595 2.89237 12.3944 3.65726C11.6293 4.42216 11.1988 5.45935 11.1975 6.54124V8.54124C11.1975 8.87276 11.3292 9.19071 11.5636 9.42513C11.798 9.65955 12.116 9.79124 12.4475 9.79124Z" fill="#262023"/>
</g>
<path d="M3.85425 32.4256C3.85334 32.4174 3.84364 32.412 3.84309 32.407C3.84193 32.3966 3.83864 32.3869 3.83379 32.3772C3.82591 32.3614 3.82104 32.3444 3.81415 32.3288C3.80824 32.3155 3.7979 32.3027 3.79493 32.2894C3.79244 32.2782 3.78535 32.2405 3.77612 32.2358" stroke="#262023" stroke-width="0.05" stroke-linecap="round"/>
<path d="M3.84291 32.4256C3.84291 32.4015 3.83773 32.377 3.83299 32.3535C3.81741 32.2762 3.80745 32.1996 3.79744 32.1214C3.78752 32.0439 3.78711 31.9678 3.78711 31.8899" stroke="#262023" stroke-width="0.05" stroke-linecap="round"/>
</g>
<defs>
<clipPath id="clip0_18_129">
<rect width="40" height="40" fill="white"/>
</clipPath>
</defs>
</svg>
