<svg width="42" height="42" viewBox="0 0 42 42" fill="none" xmlns="http://www.w3.org/2000/svg">
<path d="M21 21C23.8995 21 26.25 18.6495 26.25 15.75C26.25 12.8505 23.8995 10.5 21 10.5C18.1005 10.5 15.75 12.8505 15.75 15.75C15.75 18.6495 18.1005 21 21 21Z" stroke="#262023" stroke-width="2"/>
<path d="M21 38.5C30.665 38.5 38.5 30.665 38.5 21C38.5 11.335 30.665 3.5 21 3.5C11.335 3.5 3.5 11.335 3.5 21C3.5 30.665 11.335 38.5 21 38.5Z" stroke="#262023" stroke-width="2"/>
<path d="M31.4458 35C31.1674 29.9399 29.6181 26.25 20.9997 26.25C12.3815 26.25 10.8322 29.9399 10.5537 35" stroke="#262023" stroke-width="2" stroke-linecap="round"/>
</svg>
