<svg width="40" height="40" viewBox="0 0 40 40" fill="none" xmlns="http://www.w3.org/2000/svg">
<path d="M20 16.6666V26.6666M20 26.6666L16.6667 23.3333M20 26.6666L23.3333 23.3333M20.1045 10.1045L19.8955 9.89535C19.319 9.31884 19.0307 9.03059 18.6943 8.82445C18.396 8.64169 18.0708 8.507 17.7308 8.42535C17.3472 8.33325 16.9395 8.33325 16.1242 8.33325H10.3333C8.4665 8.33325 7.53307 8.33325 6.82003 8.69657C6.19282 9.01614 5.68288 9.52607 5.36332 10.1533C5 10.8663 5 11.7997 5 13.6666V26.3333C5 28.2001 5 29.1336 5.36332 29.8466C5.68288 30.4738 6.19282 30.9838 6.82003 31.3033C7.53307 31.6666 8.46648 31.6666 10.3333 31.6666H29.6667C31.5335 31.6666 32.467 31.6666 33.18 31.3033C33.8072 30.9838 34.3172 30.4738 34.6367 29.8466C35 29.1336 35 28.2001 35 26.3333V16.9999C35 15.1331 35 14.1997 34.6367 13.4866C34.3172 12.8594 33.8072 12.3495 33.18 12.0299C32.467 11.6666 31.5335 11.6666 29.6667 11.6666H23.8758C23.0605 11.6666 22.6528 11.6666 22.2692 11.5745C21.9292 11.4928 21.604 11.3582 21.3057 11.1754C20.9693 10.9693 20.681 10.681 20.1045 10.1045Z" stroke="black" stroke-width="2" stroke-linecap="round" stroke-linejoin="round"/>
</svg>
