<svg width="40" height="40" viewBox="0 0 40 40" fill="none" xmlns="http://www.w3.org/2000/svg">
<g clip-path="url(#clip0_18_160)">
<path d="M19.9997 39.994C8.97184 39.994 0 31.0255 0 20.001C0 8.97517 8.97184 0.00598145 19.9997 0.00598145C31.0275 0.00598145 40 8.97583 40 20.001C40 31.0255 31.0275 39.994 19.9997 39.994ZM19.9997 1.99692C10.0695 1.99692 1.99094 10.0735 1.99094 20.001C1.99094 29.9278 10.0695 38.0044 19.9997 38.0044C29.9298 38.0044 38.0091 29.9278 38.0091 20.001C38.0091 10.0735 29.9298 1.99692 19.9997 1.99692Z" fill="#F74919"/>
<path d="M17.7814 20.7766C17.8685 21.6903 18.0149 22.3695 18.229 22.8527C18.5266 23.5223 19.1012 23.8913 19.8455 23.8913C20.575 23.8913 21.1506 23.5214 21.4685 22.8479C21.7067 22.3426 21.8559 21.6701 21.9227 20.7958L22.4704 14.286C22.5325 13.6596 22.5641 13.0428 22.5641 12.4357C22.5641 11.3222 22.4195 10.4729 22.1201 9.835C21.8596 9.28355 21.2803 8.62738 19.9994 8.62738C19.1874 8.62738 18.5164 8.91464 18.0084 9.4805C17.5098 10.031 17.2549 10.7813 17.2549 11.7084C17.2549 12.2551 17.2938 13.1581 17.3717 14.4167L17.7814 20.7766Z" fill="#F74919"/>
<path d="M18.4961 27.124C18.1187 27.5032 17.9185 27.9891 17.9185 28.5304C17.9185 29.1431 18.1347 29.6549 18.5434 30.0139C18.9348 30.3546 19.3978 30.5278 19.9191 30.5278C20.437 30.5278 20.8979 30.3518 21.2865 30.0027C21.6883 29.643 21.9003 29.134 21.9003 28.5304C21.9003 27.9863 21.696 27.4983 21.3115 27.1205C20.5337 26.352 19.2566 26.3556 18.4961 27.124Z" fill="#F74919"/>
</g>
<defs>
<clipPath id="clip0_18_160">
<rect width="40" height="40" fill="white"/>
</clipPath>
</defs>
</svg>
